<svg width="256" height="90" xmlns="http://www.w3.org/2000/svg" xmlns:xlink="http://www.w3.org/1999/xlink"><defs><path id="a" d="M0 .277h41.297v40.135H0z"/><path id="c" d="M.089.275h15.23v7.977H.088z"/><path id="e" d="M.523.24h16.989V14.9H.523z"/><path id="g" d="M.29 1.275h2.05v1.162H.29z"/><path id="i" d="M.971.08h2.05v1.97H.971z"/><path id="k" d="M.205 1.275h2.05v1.182H.205z"/></defs><g fill="none" fill-rule="evenodd"><path d="M73.382 42.187h6.351a64.966 64.966 0 0 1-.162-5.65 66.168 66.168 0 0 1-6.189 5.65" fill="#464493"/><path d="M42.382 23.355a65.617 65.617 0 0 1 10.596-13.337 66.017 66.017 0 0 1-8.84-.443l-.86 6.76-.896 7.02z" fill="#D45C9A"/><g transform="translate(0 1.775)"><mask id="b" fill="#fff"><use xlink:href="#a"/></mask><path d="M41.297 23.45L38.558 6.9a65.019 65.019 0 0 1-15.769-5.407l-1.248 8.583-2.198 15.119h-.334L16.533 9.14 15.163.277H0l2.663 14.102 4.92 26.033h19.12l1.177-7.276 1.553-9.616h.782l1.867 10.299 1.197 6.593h1.489a64.854 64.854 0 0 1 6.529-16.962" fill="#D45C9A" mask="url(#b)"/></g><path d="M52.978 10.018h-.002.002a65.644 65.644 0 0 0-10.596 13.34l-.463 3.611h-.335l-.287-1.744a64.754 64.754 0 0 0-6.529 16.962h17.02l3.222-17.065 2.909-15.401a65.183 65.183 0 0 1-4.94.297m23.893 4.464h6.923a64.891 64.891 0 0 1 6.287-12.431h-7.075a64.958 64.958 0 0 1-15.446 6.035A66.116 66.116 0 0 1 62.6 9.113v33.073h10.783a65.866 65.866 0 0 0 6.184-5.648 65.8 65.8 0 0 1 .478-6.781h-3.173v-2.675h3.546c.152-.931.32-1.858.51-2.778.39-1.874.856-3.735 1.409-5.576.16-.527.34-1.048.51-1.57h-5.975v-2.676z" fill="#464493"/><path d="M38.556 8.673L37.461 2.05H22.968l-.176 1.214a64.842 64.842 0 0 0 15.764 5.408" fill="#DB80AF"/><g transform="translate(44.05 1.775)"><mask id="d" fill="#fff"><use xlink:href="#c"/></mask><path d="M8.928 8.241a65.81 65.81 0 0 1 5.83-4.996l.56-2.97H1.048L.088 7.8c2.936.34 5.89.497 8.84.441" fill="#DB80AF" mask="url(#d)"/></g><path d="M57.92 9.722l.889-4.699a64.824 64.824 0 0 0-5.83 4.994 66.262 66.262 0 0 0 4.94-.295m4.683-.611a67.52 67.52 0 0 0 4.959-1.023 64.909 64.909 0 0 0 15.444-6.035H63.03c-.141.09-.287.176-.428.268v6.79z" fill="#464493"/><path d="M169.172 27.825a7.491 7.491 0 0 1-.371-.44 16.388 16.388 0 0 1-1.177-1.755l-1.505-2.505v-.002c3.746-3.15 5.677-7.132 6.65-11.318.353-1.515.572-3.057.716-4.592a53.4 53.4 0 0 0 .205-4.086c-.496.248-.994.49-1.492.721a64.994 64.994 0 0 1-13.756 4.592c-.502 2.598-1.318 4.506-2.339 5.853-.016.02-.03.035-.043.056a8.5 8.5 0 0 1-.607.697 6.882 6.882 0 0 1-1.988 1.443h-1.45V9.484a66.37 66.37 0 0 1-8.37.414c8.55 8.235 14.86 18.778 17.925 30.63 2.362 1.641 4.918 2.162 7.895 2.162 1.67 0 3.454-.168 5.463-.392v-12.71c-2.845 0-4.276-.125-5.756-1.763" fill="#47AA51"/><path d="M161.57 40.528c-3.066-11.851-9.374-22.395-17.927-30.627a69.439 69.439 0 0 1-2.99-.12 62.66 62.66 0 0 1-2.908-.247v32.654h14.27V28.195h1.337c2.708 6.582 5.313 10.311 8.218 12.333" fill="#008847"/><path d="M143.643 9.898a66.04 66.04 0 0 0 8.372-.416V2.05h-14.27v2.827a65.607 65.607 0 0 1 5.898 5.02m27.949-7.847h-12.608c0 2.497-.198 4.602-.543 6.388a64.872 64.872 0 0 0 13.756-4.59c.498-.232.996-.473 1.492-.72.006-.36.01-.719.01-1.078h-2.107z" fill="#BBC702"/><path d="M137.745 9.535a66.16 66.16 0 0 0 5.898.363 65.63 65.63 0 0 0-5.898-5.022v4.66z" fill="#BBC702"/><path fill="#1C80A0" d="M87.122 27.08H88.8v-2.7"/><path d="M85.266 29.755a65.18 65.18 0 0 1-4.699 5.695c-.332.36-.656.734-.998 1.087a66.17 66.17 0 0 0 .164 5.65h13.694V29.754h-8.161z" fill="#1DA7B3"/><path d="M82.337 18.728a65.066 65.066 0 0 0-1.919 8.352h6.702a63.94 63.94 0 0 0 1.68-2.702v-7.222h-5.953c-.17.523-.352 1.046-.51 1.572m1.457-4.246h9.76c.068-.178.142-.354.207-.53V2.05h-3.677a64.666 64.666 0 0 0-6.29 12.431" fill="#038CBB"/><path d="M245.01 48.942a63.25 63.25 0 0 1 4.016 12.234h6.463V48.942h-10.48z" fill="#5DB3D2"/><path d="M244.948 79.536a63.638 63.638 0 0 1-13.981 8.376v.357h13.98v-8.733zm-51.29-22.384V48.94h-6.864a64.026 64.026 0 0 1 6.864 8.212" fill="#038CBB"/><path d="M244.948 79.536v-18.36h4.077a63.11 63.11 0 0 0-4.016-12.235h-24.588v12.182h10.546v26.789a63.638 63.638 0 0 0 13.98-8.376M197.24 62.87a63.243 63.243 0 0 1 5.18 12.178h1.125v4.184a63.403 63.403 0 0 1 1.429 9.037h12.61V48.942h-14.04v13.927h-6.305z" fill="#038CBB"/><g transform="translate(157.85 74.025)"><mask id="f" fill="#fff"><use xlink:href="#e"/></mask><path d="M17.512 11.539A63.826 63.826 0 0 1 4.297 2.043 5.883 5.883 0 0 1 1.97.24 64.09 64.09 0 0 1 .523 14.51c1.601.257 3.344.392 5.244.392 1.788 0 4.072-.152 6.277-.476 2.044-.3 4.022-.752 5.468-1.383V11.54z" fill="#D45C9A" mask="url(#f)"/></g><path d="M179.676 87.688c.445.199.892.391 1.343.578h12.638V75.049h8.764a63.378 63.378 0 0 0-5.183-12.179h-3.581v-5.72a64.157 64.157 0 0 0-6.863-8.207h-7.118v38.745zm-17.527-11.62a63.854 63.854 0 0 0 13.21 9.496V74.998c-1.308.433-2.934.87-4.615 1.2-1.676.327-3.413.545-4.942.545-1.328 0-2.573-.203-3.653-.675" fill="#464493"/><path d="M203.545 79.235v9.033h1.429a63.591 63.591 0 0 0-1.429-9.033" fill="#347BAF"/><path d="M154.703 49.959a63.404 63.404 0 0 1 4.035 13.337c.057.312.115.621.168.933a5.628 5.628 0 0 1 1.552-2.038c1.554-1.283 3.729-1.67 6-1.67 3.276 0 7.046.762 8.848 1.148v-12.18a44.75 44.75 0 0 0-5.66-.914 63.18 63.18 0 0 0-6.138-.287c-3.27 0-6.228.574-8.805 1.67" fill="#464493"/><path d="M61.695 75.924c-.365 0-.703-.004-1.023-.012a64.099 64.099 0 0 1-6.452 7.536 65.28 65.28 0 0 1-.203 5.182c.745.09 1.52.131 2.327.131.742 0 1.51-.039 2.309-.096a77.795 77.795 0 0 0 3.042-.287V75.924zm22.832-26.982H72.051a63.192 63.192 0 0 1-6.532 19.25v20.077h12.569a63.39 63.39 0 0 1 1.414-8.96v-2.02H80a63.775 63.775 0 0 1 3.636-10.098 6.859 6.859 0 0 1-1.238.103h-2.895v-6.556h2.895c2.37 0 3.212.859 3.485 2.023.33-.59.67-1.175 1.019-1.753a63.642 63.642 0 0 1 7.13-9.684c-2.43-1.53-5.588-2.382-9.504-2.382" fill="#ED6A2B"/><path d="M123.635 82.369a64.53 64.53 0 0 1-.445-8.535 63.803 63.803 0 0 1-20.916 14.434h13.66l1.342-5.582.08-.317h6.28z" fill="#DD254E"/><path d="M123.19 73.834a60.99 60.99 0 0 1 .118-2.935h-3.114l.998-3.965.75-2.97.38-2.842h.55l.38 2.841.007.027.539 2.136a63.522 63.522 0 0 1 4.926-17.238h-15.359l-11.992 39.304.033.076h.869a63.794 63.794 0 0 0 20.916-14.434" fill="#DD254E"/><path d="M78.09 88.268h1.41V79.31a63.769 63.769 0 0 0-1.41 8.958" fill="#ED6A2B"/><path d="M101.35 88.268l.024-.076h-.002L97.09 77.977l-1.638-3.911c3.714-3.274 4.696-7.43 4.696-10.05 0-5.596-2.009-10.11-6.117-12.693a64.087 64.087 0 0 0-8.149 11.44c.09.389.12.813.12 1.254 0 .877-.112 1.7-.622 2.3-.353.416-.904.726-1.745.873a63.043 63.043 0 0 0-3.634 10.1h2.45l.928 2.596 3.006 8.382h14.965z" fill="#DD254E"/><path d="M123.19 73.834c-.044 2.85.114 5.701.446 8.534h4.151l.322 1.253 1.205 4.647h14.529l-9.36-30.543a63.797 63.797 0 0 1-11.292 16.11m35.182 14.7a64.212 64.212 0 0 0 1.445-14.27 6.506 6.506 0 0 1-.805-1.353 63.721 63.721 0 0 1-11.486-17.247c-.02.029-.043.057-.066.09-.205.29-.402.588-.586.892-1.46 2.366-2.43 5.186-2.827 8.421a27.992 27.992 0 0 0-.201 3.428c0 11.531 4.254 18.394 14.526 20.039" fill="#D45C9A"/><path d="M123.797 66.129l1.206 4.77H125h.002-1.695a59.815 59.815 0 0 0-.117 2.936 63.771 63.771 0 0 0 11.291-16.111l-2.71-8.836h-3.048a63.442 63.442 0 0 0-4.927 17.24" fill="#D45C9A"/><path d="M158.737 63.296a63.283 63.283 0 0 0-4.034-13.337c-2.44 1.041-4.535 2.548-6.211 4.485-.339.39-.66.796-.966 1.22a63.691 63.691 0 0 0 11.488 17.249c-.547-1.21-.859-2.75-.859-4.69 0-.396.017-.774.045-1.13.097-1.134.345-2.075.706-2.866-.052-.31-.111-.621-.169-.931" fill="#DB80AF"/><path d="M72.053 48.942h-6.535v19.25a63.255 63.255 0 0 0 6.535-19.25M46.866 53.96a63.681 63.681 0 0 1 7.356 29.486 64.045 64.045 0 0 0 6.447-7.534c-2.938-.065-4.16-.568-6.13-3.866l-1.474-2.456v-.002c2.315-1.946 3.914-4.223 5.025-6.665 2.009-4.41 2.403-9.374 2.403-13.983h-14.42c0 1.214-.05 2.327-.137 3.36.313.554.633 1.103.93 1.66" fill="#BBC702"/><path d="M80.567 35.45a65.794 65.794 0 0 0 4.699-5.694h-5.224a66.416 66.416 0 0 0-.473 6.78c.34-.354.666-.725.998-1.085" fill="#038CBB"/><g transform="translate(61.5 .775)"><mask id="h" fill="#fff"><use xlink:href="#g"/></mask><path d="M1.102 1.276v.272c.141-.094.287-.18.428-.272h-.428z" fill="#D93E77" mask="url(#h)"/></g><path d="M93.554 14.482h.209v-.53c-.068.178-.142.352-.21.53" fill="#1C80A0"/><g transform="translate(178.35 86.875)"><mask id="j" fill="#fff"><use xlink:href="#i"/></mask><path d="M1.326 1.394h1.34a77.631 77.631 0 0 1-1.34-.579v.579z" fill="#A45191" mask="url(#j)"/></g><path d="M50.058 87.233h-.005c-.063.054-.123.113-.19.166.892.462 1.816.781 2.782.997v-.002l.004.002c.445.1.902.178 1.37.235.132-1.728.21-3.456.202-5.186a63.385 63.385 0 0 1-4.163 3.788" fill="#ED6A2B"/><path d="M46.866 53.96c-.297-.557-.617-1.106-.93-1.66-.412 4.871-1.743 7.85-3.487 9.537a6.66 6.66 0 0 1-1.782 1.25h-1.423V48.94h-1.189l-.022.052.022-.052H25.263v39.327h13.979l.002-13.71h1.312c2.477 6.02 4.865 9.602 7.487 11.663l.004.002c.593.467 1.195.856 1.816 1.176l.189-.164h.004a63.895 63.895 0 0 0 4.166-3.788c-.045-10.148-2.495-20.289-7.356-29.485" fill="#47AA51"/><path d="M119.261 42.187h4.145c-1.416-1.13-2.767-2.337-4.088-3.575a88.972 88.972 0 0 1-.057 3.575" fill="#197E49"/><path d="M115.169 14.092c3.233 0 3.678 1.562 3.678 3.346 0 1.377-.283 2.611-1.894 3.107a85.81 85.81 0 0 1 1.881 9.961c.349 2.684.478 5.43.484 8.104 1.32 1.24 2.671 2.448 4.09 3.577h11.158l-2.726-6.51-3.348-7.983c3.79-3.346 4.793-7.581 4.793-10.256 0-3.473-.763-6.536-2.298-8.994a65.001 65.001 0 0 1-16.693-6.082c-.205-.109-.42-.199-.626-.312h-4.946c2.35 2.901 4.524 7.032 6.297 12.042h.15z" fill="#008847"/><path d="M130.986 8.442c-2.482-3.98-6.996-6.392-13.644-6.392h-3.674c.205.113.42.201.625.312a64.968 64.968 0 0 0 16.693 6.08" fill="#BBC702"/><g transform="translate(112.75 .775)"><mask id="l" fill="#fff"><use xlink:href="#k"/></mask><path d="M1.544 1.588c-.207-.111-.42-.201-.627-.312.207.11.42.201.627.312" fill="#BBC702" mask="url(#l)"/></g><path d="M119.239 42.187h.022c.041-1.166.062-2.361.058-3.575-.703-.66-1.409-1.318-2.083-2.009l2.003 5.584z" fill="#1E6881"/><path d="M116.953 20.546c-.474.144-1.05.234-1.784.234h-.277a65.64 65.64 0 0 1 2.223 15.477l.125.345c.67.693 1.377 1.347 2.078 2.009-.008-2.673-.135-5.42-.483-8.106a85.69 85.69 0 0 0-1.882-9.959M106.53 2.05a64.867 64.867 0 0 1 5.193 9.656c.343.791.67 1.584.982 2.384v.002h2.315c-1.776-5.01-3.949-9.141-6.298-12.042h-2.191z" fill="#1E6881"/><path d="M97.942 2.052v40.135h14.272V30.982h.162c-6.412-8.29-10.877-18.155-12.697-28.93h-1.737z" fill="#1DA7B3"/><path d="M106.53 2.05h-6.853c1.823 10.777 6.288 20.64 12.702 28.932h2.844l1.89 5.275a65.498 65.498 0 0 0-2.22-15.476h-2.68V14.09h.492c-.311-.8-.64-1.593-.982-2.384a64.968 64.968 0 0 0-5.192-9.656m5.193 9.656" fill="#1E6881"/></g></svg>